<svg width="87.156mm" height="85.692mm" version="1.1" viewBox="0 0 87.156 85.692"
    xmlns="http://www.w3.org/2000/svg">
    <g transform="translate(-126.21 -15.875)">
        <path
            d="m165.36 92.46c-0.0205-2.5891 0.89009-4.6299 2.7999-6.203 1.8093-1.4903 3.2036-3.1696 3.2528-5.6681 0.0701-3.5587 0.0803-7.1103-2.2102-10.129-1.1246-1.482-2.8031-1.7588-4.572-1.4435-2.7673 0.49325-5.2411 4.2704-4.5147 6.9532 0.57927 2.1392 0.74199 4.2383-0.15167 6.3283-1.6273 3.8056-6.1755 5.8805-10.259 4.6808-4.1256-1.2121-6.7036-5.3192-5.9433-9.469 0.79479-4.3381 4.7779-7.4114 9.2047-7.1022 4.5527 0.31812 7.5544-1.6935 8.3477-5.5943 0.75433-3.7094-1.6033-7.424-5.5632-8.7845-3.4358-1.1808-6.3908-0.5347-8.9552 2.0848-3.3287 3.4-7.3752 4.5819-11.954 3.0867-4.6186-1.5083-7.1767-4.8868-7.9698-9.5749-0.90874-5.3711 2.8692-10.951 8.4724-12.592 5.2962-1.5515 11.256 1.049 13.523 5.9085 6.5392 14.021 15.626 5.3186 15.989 4.9619 2.7609-2.707 3.1075-8.2778 0.66041-11.27-3.405-2.6314-7.0119-3.694-7.1224-8.8084 0.076-3.0957 1.5439-5.5305 4.5785-6.8157 3.3551-1.4209 7.1094-0.34802 9.3605 2.6835 2.1483 2.893 2.2248 6.8265-0.42777 9.2948-3.0043 2.7957-2.2106 7.413-0.24574 10.071 1.5841 2.1435 4.4235 2.8316 7.0899 1.5114 3.8429-1.9028 7.9785-5.7747 6.7648-12.143-1.5913-8.3494 5.6539-14.951 13.358-14.271 7.6782 0.67776 12.7 7.3934 11.327 14.85-1.2944 7.0322-8.5755 11.375-15.866 9.3692-3.9408-1.0845-7.1549 0.13074-9.869 2.8495-2.6362 2.6405-3.819 5.8389-2.8127 9.5408 1.0926 4.0186 5.618 7.521 9.7631 7.7182 1.406 0.06686 2.5814-0.5613 3.7978-1.1235 5.0987-2.3569 10.83 0.63746 11.759 6.1219 0.72383 4.2774-2.067 8.2397-6.5288 9.2695-3.9397 0.90908-8.5523-1.6422-9.6521-6.4359-0.99636-4.3445-4.1265-6.7767-8.5445-6.6373-3.8988 0.12298-7.087 3.0569-7.6685 7.3002-0.38804 2.8319-0.18478 5.6614 0.73881 8.4216 0.60014 1.7936 1.8461 2.907 3.4052 3.8954 3.897 2.4705 5.3044 7.2821 3.3996 11.213-1.7584 3.6282-5.9396 5.6282-9.9364 4.7527-4.106-0.89937-6.7247-4.2243-6.8244-8.802z"
            fill="#f60" stroke-width=".2958" />
        <g transform="matrix(.08753 0 0 .08753 125.16 14.467)" fill="#fff">
            <path
                d="m839.64 874.8c13.787 32.698-1.5784 63.373-32.746 67.738-20.75 2.9055-39.925-7.9386-47.756-27.008-7.9941-19.465-1.5384-43.38 14.631-54.203 19.237-12.876 41.648-11.689 57.737 3.2721 2.8533 2.6533 5.0356 6.0117 8.1329 10.201z"
                stroke-width="3.3794" />
            <circle cx="285.27" cy="230.74" r="19" stroke-width="1.1884" />
            <circle cx="220.78" cy="134.5" r="70" stroke-width="4.3785" />
            <circle cx="90.749" cy="681.12" r="50" stroke-width="3.1275" />
            <circle cx="952.11" cy="478.65" r="50" stroke-width="3.1275" />
            <g stroke-width="2.502">
                <circle cx="381.63" cy="359.25" r="40" />
                <circle cx="320.58" cy="559.63" r="40" />
                <circle cx="650.41" cy="675.05" r="40" />
            </g>
            <circle cx="463.89" cy="699.61" r="35" stroke-width="2.1892" />
            <circle cx="582.11" cy="308.89" r="40" stroke-width="2.502" />
            <circle cx="638.24" cy="62.136" r="40" stroke-width="2.502" />
            <g stroke-width="1.1884">
                <circle cx="327.88" cy="286.41" r="19" />
                <circle cx="618.03" cy="147.62" r="19" />
                <circle cx="608.52" cy="217.57" r="19" />
                <circle cx="702.12" cy="767.77" r="19" />
                <circle cx="744.73" cy="823.44" r="19" />
                <circle cx="172.99" cy="628.15" r="19" />
                <circle cx="238.69" cy="601.22" r="19" />
                <circle cx="442.64" cy="777.78" r="19" />
                <circle cx="413.75" cy="833.17" r="19" />
                <circle cx="387.26" cy="886.1" r="19" />
                <circle cx="855.77" cy="463.8" r="19" />
            </g>
            <circle cx="744.86" cy="459.03" r="75" stroke-width="4.6912" />
        </g>
    </g>
</svg>